<svg width="25" height="24" viewBox="0 0 25 24" fill="none" xmlns="http://www.w3.org/2000/svg">
<g filter="url(#filter0_d_21_169)">
<path d="M20 5.5C20.2761 5.5 20.5 5.27614 20.5 5V3C20.5 1.61929 19.3807 0.5 18 0.5H7C5.61929 0.5 4.5 1.61929 4.5 3V5C4.5 5.27614 4.72386 5.5 5 5.5H20Z" fill="#3D82EB" stroke="#3D82EB" stroke-linecap="round" stroke-linejoin="round"/>
<path d="M4.5 5.5H20.5V13C20.5 14.3807 19.3807 15.5 18 15.5H7C5.61929 15.5 4.5 14.3807 4.5 13V5.5Z" stroke="#3D82EB"/>
<path d="M12.125 13H8.71385V12.3232L10.3237 10.6074C10.5447 10.3659 10.7077 10.1551 10.8125 9.9751C10.9196 9.79508 10.9731 9.62419 10.9731 9.4624C10.9731 9.24137 10.9173 9.0682 10.8056 8.94287C10.694 8.81527 10.5345 8.75146 10.3271 8.75146C10.1038 8.75146 9.92723 8.82894 9.79734 8.98389C9.66974 9.13656 9.60594 9.33822 9.60594 9.58887H8.61473C8.61473 9.28581 8.6865 9.00895 8.83006 8.7583C8.97589 8.50765 9.18097 8.31169 9.44529 8.17041C9.70962 8.02686 10.0093 7.95508 10.3442 7.95508C10.8569 7.95508 11.2545 8.07812 11.5371 8.32422C11.8219 8.57031 11.9643 8.91781 11.9643 9.3667C11.9643 9.61279 11.9005 9.86344 11.7729 10.1187C11.6453 10.3739 11.4266 10.6712 11.1167 11.0107L9.98533 12.2036H12.125V13ZM13.9483 10.0742H14.4746C14.7253 10.0742 14.911 10.0116 15.0318 9.88623C15.1525 9.7609 15.2129 9.59456 15.2129 9.38721C15.2129 9.18669 15.1525 9.0306 15.0318 8.91895C14.9133 8.80729 14.7492 8.75146 14.5396 8.75146C14.3504 8.75146 14.1921 8.80387 14.0645 8.90869C13.9369 9.01123 13.8731 9.14567 13.8731 9.31201H12.8853C12.8853 9.05225 12.9548 8.81982 13.0938 8.61475C13.235 8.40739 13.431 8.24561 13.6817 8.12939C13.9346 8.01318 14.2126 7.95508 14.5156 7.95508C15.042 7.95508 15.4544 8.08154 15.7529 8.33447C16.0515 8.58512 16.2007 8.93148 16.2007 9.37354C16.2007 9.6014 16.1312 9.81104 15.9922 10.0024C15.8532 10.1938 15.6709 10.3408 15.4453 10.4434C15.7256 10.5436 15.9341 10.694 16.0708 10.8945C16.2098 11.0951 16.2793 11.332 16.2793 11.6055C16.2793 12.0475 16.1175 12.4019 15.794 12.6685C15.4727 12.9351 15.0466 13.0684 14.5156 13.0684C14.0189 13.0684 13.6122 12.9373 13.2954 12.6753C12.981 12.4132 12.8238 12.0669 12.8238 11.6362H13.8115C13.8115 11.8231 13.881 11.9757 14.02 12.0942C14.1613 12.2127 14.3345 12.272 14.5396 12.272C14.7743 12.272 14.9577 12.2104 15.0899 12.0874C15.2243 11.9621 15.2915 11.7969 15.2915 11.5918C15.2915 11.0951 15.0181 10.8467 14.4712 10.8467H13.9483V10.0742Z" fill="#3D82EB"/>
<path d="M8.36807 1.44531L9.28115 4.02344L10.1894 1.44531H11.1513V5H10.4164V4.02832L10.4896 2.35107L9.53018 5H9.02725L8.07021 2.35352L8.14346 4.02832V5H7.41104V1.44531H8.36807ZM13.9917 4.26758H12.7075L12.4634 5H11.6846L13.0078 1.44531H13.6865L15.0171 5H14.2383L13.9917 4.26758ZM12.9053 3.67432H13.7939L13.3472 2.34375L12.9053 3.67432ZM16.3585 3.04688L17.0982 1.44531H17.899L16.732 3.71094V5H15.9874V3.71094L14.8204 1.44531H15.6236L16.3585 3.04688Z" fill="white"/>
</g>
<defs>
<filter id="filter0_d_21_169" x="0" y="0" width="25" height="24" filterUnits="userSpaceOnUse" color-interpolation-filters="sRGB">
<feFlood flood-opacity="0" result="BackgroundImageFix"/>
<feColorMatrix in="SourceAlpha" type="matrix" values="0 0 0 0 0 0 0 0 0 0 0 0 0 0 0 0 0 0 127 0" result="hardAlpha"/>
<feOffset dy="4"/>
<feGaussianBlur stdDeviation="2"/>
<feComposite in2="hardAlpha" operator="out"/>
<feColorMatrix type="matrix" values="0 0 0 0 0 0 0 0 0 0 0 0 0 0 0 0 0 0 0.25 0"/>
<feBlend mode="normal" in2="BackgroundImageFix" result="effect1_dropShadow_21_169"/>
<feBlend mode="normal" in="SourceGraphic" in2="effect1_dropShadow_21_169" result="shape"/>
</filter>
</defs>
</svg>
